<?xml version="1.0" standalone="no"?>
<!DOCTYPE svg PUBLIC "-//W3C//DTD SVG 20010904//EN"
 "http://www.w3.org/TR/2001/REC-SVG-20010904/DTD/svg10.dtd">
<svg version="1.0" xmlns="http://www.w3.org/2000/svg"
 width="260.000000pt" height="260.000000pt" viewBox="0 0 260.000000 260.000000"
 preserveAspectRatio="xMidYMid meet">
<metadata>
Created by potrace 1.14, written by Peter Selinger 2001-2017
</metadata>
<g transform="translate(0.000000,260.000000) scale(0.100000,-0.100000)"
fill="#000000" stroke="none">
<path d="M1240 2556 c0 -8 -5 -18 -12 -22 -7 -4 -8 -3 -4 4 5 8 -2 12 -19 12
-18 0 -24 -4 -19 -12 6 -10 4 -10 -7 0 -7 6 -21 12 -32 12 -12 0 -16 -4 -11
-12 6 -10 5 -10 -7 -1 -9 7 -25 10 -37 8 -12 -3 -31 -7 -42 -9 -35 -8 -42 -16
-28 -34 11 -15 11 -15 -2 -6 -20 15 -49 10 -64 -12 -7 -9 -18 -14 -24 -10 -7
4 -12 0 -13 -11 0 -10 -3 -13 -5 -6 -3 7 -12 9 -20 6 -7 -3 -12 -9 -9 -13 3
-4 -3 -14 -12 -21 -14 -12 -16 -12 -8 1 8 13 7 13 -10 0 -51 -40 -74 -64 -69
-71 3 -5 -1 -9 -9 -9 -8 0 -23 -12 -33 -27 -9 -16 -30 -40 -45 -54 -16 -15
-25 -29 -22 -33 3 -3 1 -6 -6 -6 -7 0 -10 -4 -6 -9 3 -5 1 -13 -5 -16 -8 -5
-7 -11 1 -21 9 -12 9 -13 -3 -9 -11 5 -15 0 -14 -17 0 -13 -4 -22 -10 -21 -6
1 -9 -10 -6 -26 4 -32 -14 -50 -31 -31 -9 10 -9 11 1 6 7 -4 12 -1 12 8 0 9
-7 16 -16 16 -8 0 -13 4 -9 9 6 11 -15 61 -26 61 -7 0 -24 49 -21 63 1 4 -4 7
-11 7 -8 0 -14 7 -15 15 -1 8 -3 22 -4 30 -1 8 -5 15 -10 15 -5 0 -6 6 -2 13
5 7 2 7 -10 -2 -9 -8 -16 -10 -15 -5 5 28 -3 54 -17 54 -8 0 -12 5 -9 10 3 6
-1 10 -9 10 -9 0 -16 4 -16 9 0 5 -19 9 -42 8 -30 -1 -50 -9 -65 -24 -12 -13
-20 -23 -18 -23 3 0 0 -11 -5 -24 -5 -15 -5 -27 3 -35 8 -8 8 -11 -2 -11 -11
0 -11 -3 0 -17 8 -9 9 -14 3 -10 -9 5 -10 -2 -4 -26 4 -18 5 -43 3 -55 -2 -16
1 -21 9 -16 7 4 8 3 4 -5 -12 -20 -14 -61 -3 -61 6 0 7 -3 4 -7 -4 -3 -1 -13
6 -21 9 -13 9 -14 0 -8 -10 5 -11 1 -4 -17 6 -14 7 -28 4 -31 -3 -3 0 -13 8
-23 9 -11 10 -14 2 -9 -7 4 -13 3 -13 -3 0 -5 4 -13 10 -16 6 -4 5 -13 -3 -26
-10 -16 -9 -21 3 -29 13 -9 13 -10 0 -10 -12 0 -12 -2 -2 -9 8 -4 14 -29 15
-57 1 -35 6 -48 15 -46 8 1 11 -2 7 -8 -3 -6 -10 -8 -14 -6 -4 3 -8 -1 -8 -9
0 -8 4 -15 9 -15 4 0 8 -5 8 -11 0 -5 -4 -8 -8 -5 -5 3 -9 -1 -9 -9 0 -8 5
-15 10 -15 5 0 7 -6 4 -14 -3 -8 -1 -17 6 -20 8 -3 8 -5 -2 -5 -9 -1 -8 -6 6
-19 10 -9 14 -14 9 -9 -17 12 -24 8 -19 -13 3 -11 8 -18 12 -16 4 3 6 -14 6
-37 0 -23 4 -45 8 -48 4 -3 9 -19 11 -35 2 -16 4 -33 5 -37 0 -5 7 -5 14 -1 8
5 8 2 -2 -9 -9 -12 -10 -17 -2 -17 7 0 10 -4 6 -9 -3 -5 -1 -12 3 -15 5 -3 8
-20 8 -38 -1 -18 1 -35 6 -38 4 -3 9 -17 10 -30 2 -14 7 -28 11 -31 5 -3 10
-14 11 -24 2 -11 9 -21 16 -23 8 -3 10 0 5 8 -6 9 -4 11 5 5 11 -7 10 -10 -1
-19 -17 -13 -13 -50 3 -40 7 4 8 2 4 -5 -5 -8 -12 -9 -19 -2 -9 7 -13 -3 -14
-35 -2 -33 1 -43 10 -38 9 5 9 4 0 -7 -16 -16 -17 -33 -1 -23 7 4 8 3 4 -5 -4
-6 -11 -9 -16 -6 -18 11 -21 -17 -4 -31 13 -10 14 -12 3 -9 -10 4 -15 -1 -16
-17 -2 -31 -7 -50 -17 -67 -7 -11 -5 -13 9 -7 15 5 16 4 6 -8 -17 -20 -21 -66
-7 -66 6 0 4 -5 -4 -10 -13 -9 -13 -10 0 -10 13 0 13 -1 0 -10 -12 -8 -12 -10
-1 -10 11 0 11 -3 0 -16 -10 -13 -10 -17 1 -24 11 -7 11 -11 1 -24 -11 -13
-11 -16 0 -16 10 -1 9 -3 -3 -10 -10 -6 -15 -20 -13 -35 1 -16 -3 -25 -11 -25
-8 0 -14 -7 -14 -15 0 -8 -16 -32 -35 -52 -19 -20 -35 -46 -35 -56 0 -11 -10
-28 -22 -38 -12 -11 -16 -19 -8 -19 10 0 10 -3 0 -15 -10 -12 -10 -15 0 -15
10 0 10 -3 0 -15 -10 -12 -10 -15 1 -15 11 0 11 -2 -1 -10 -13 -9 -13 -11 0
-20 8 -5 10 -10 4 -10 -6 0 -10 -8 -8 -18 4 -33 16 -62 26 -62 5 0 7 -4 3 -10
-3 -5 3 -18 15 -30 11 -11 21 -23 21 -27 2 -12 79 -84 79 -75 0 4 5 -1 11 -11
9 -15 13 -16 25 -6 12 10 15 10 12 -2 -2 -8 3 -13 10 -11 6 1 12 -5 12 -13 0
-13 4 -14 21 -4 12 6 19 7 15 1 -7 -11 21 -25 35 -16 5 3 9 1 9 -4 0 -5 11 -8
25 -7 14 2 28 -1 31 -6 3 -6 11 -5 20 2 11 9 14 8 14 -2 0 -10 3 -10 8 -3 4 6
24 17 45 25 22 8 36 18 33 25 -3 9 2 11 17 8 12 -3 31 -6 42 -7 11 -1 22 -5
25 -9 3 -3 14 -8 25 -10 11 -1 23 -7 26 -12 4 -4 21 -9 38 -10 20 0 31 -6 32
-16 0 -8 3 -10 5 -4 5 12 54 6 54 -7 0 -9 65 -7 75 2 3 4 22 1 43 -6 22 -8 38
-10 40 -4 2 6 10 5 19 -3 18 -14 103 -19 103 -5 0 5 8 3 17 -4 15 -12 16 -12
8 1 -8 13 -7 13 8 1 14 -11 17 -11 17 0 0 11 2 11 10 -1 9 -13 10 -13 10 0 0
13 1 13 10 0 7 -11 10 -11 10 -2 0 8 5 10 12 6 8 -5 9 -2 4 11 -5 15 -4 16 9
5 12 -10 18 -10 32 1 11 10 14 10 9 2 -4 -8 -1 -13 8 -13 9 0 16 5 16 10 0 7
6 7 19 1 14 -8 23 -5 40 10 11 11 21 15 21 8 0 -8 4 -8 15 1 8 7 12 17 8 24
-3 6 3 3 14 -7 18 -16 21 -16 26 -2 4 8 15 15 26 15 11 0 27 3 35 6 14 5 14 9
4 23 -11 14 -11 14 3 3 16 -12 49 -7 49 7 0 4 6 8 13 9 35 5 53 8 62 13 6 3
21 4 35 3 14 -1 31 3 39 10 12 8 13 8 7 -2 -4 -7 -1 -12 8 -12 9 0 16 -5 16
-10 0 -7 7 -7 21 1 15 8 19 8 15 0 -4 -6 -2 -11 3 -11 6 0 11 5 11 11 0 6 7 3
16 -6 15 -14 17 -14 31 2 8 10 12 12 8 6 -4 -8 0 -13 9 -13 8 0 17 6 19 13 4
9 6 8 6 -2 1 -11 4 -11 16 -1 8 7 15 10 15 6 0 -6 29 16 61 46 9 9 20 14 23
11 3 -4 6 -1 6 5 0 7 7 12 15 12 8 0 14 3 14 8 -4 22 3 31 17 25 14 -5 16 -1
12 19 -4 20 -2 25 10 20 11 -4 14 -1 9 12 -4 9 -3 15 2 12 5 -3 15 9 21 27 19
50 22 60 23 92 0 17 5 33 11 37 7 5 3 8 -9 8 -17 0 -17 2 -5 10 11 7 11 10 2
10 -7 0 -10 5 -7 10 3 5 1 10 -4 10 -6 0 -11 7 -11 15 0 8 -4 15 -10 15 -5 0
-10 6 -10 14 0 7 -13 27 -29 44 -16 16 -27 33 -24 36 4 3 -1 6 -10 6 -10 0
-17 5 -17 11 0 15 -26 39 -34 32 -3 -4 -6 6 -6 21 0 19 -4 25 -12 20 -9 -5 -9
-2 1 9 9 12 10 17 2 17 -7 0 -11 8 -9 17 2 12 -3 17 -12 15 -13 -2 -13 -1 0
10 9 7 15 22 14 33 -7 73 -9 85 -15 85 -3 0 -6 25 -5 55 1 38 -3 56 -13 60
-11 4 -11 8 -1 20 7 8 8 15 3 15 -12 0 -11 121 1 139 6 10 6 12 -2 7 -16 -10
-15 7 1 23 10 11 9 13 -3 7 -13 -7 -13 -6 0 6 9 7 15 25 15 41 -1 15 3 27 8
27 4 0 6 4 2 9 -3 5 -1 13 5 16 8 5 7 11 -1 21 -9 11 -8 15 3 19 7 3 14 15 15
25 1 13 -3 18 -10 14 -7 -3 -3 2 7 10 13 11 15 16 6 16 -10 0 -10 4 2 18 9 9
14 25 13 35 -2 9 2 17 8 17 6 0 2 6 -9 14 -19 14 -19 14 1 13 21 -2 28 23 10
35 -6 5 -5 8 4 8 11 0 10 5 -5 23 -10 12 -12 16 -4 10 26 -23 28 -20 32 47 1
17 5 30 10 30 4 0 5 6 2 14 -3 8 -1 17 5 21 8 4 8 12 0 26 -7 15 -7 24 2 35 9
11 9 14 -2 14 -12 0 -12 2 0 9 11 7 11 9 0 14 -10 4 -9 6 4 6 13 1 16 7 13 26
-3 14 0 25 5 25 6 0 7 5 4 10 -3 6 -2 10 4 10 6 0 8 7 5 15 -4 9 0 15 7 15 11
0 11 3 -1 10 -12 8 -12 10 -1 10 9 0 12 10 9 34 -2 19 0 32 4 30 4 -3 8 2 8
10 0 8 5 27 12 43 12 31 17 48 23 78 2 11 7 31 13 45 5 14 7 31 4 39 -3 10 0
11 9 5 12 -7 12 -5 0 9 -11 14 -11 17 0 17 11 0 11 2 -1 10 -12 8 -12 10 -1
10 11 0 11 3 1 15 -7 8 -9 15 -5 15 4 0 1 8 -6 18 -13 15 -12 16 3 4 15 -12
16 -11 14 12 -4 35 -12 41 -33 25 -17 -13 -17 -13 -1 6 20 25 7 39 -39 43 -28
3 -32 1 -28 -19 2 -12 1 -18 -3 -15 -4 4 -7 13 -7 19 0 25 -46 13 -83 -22 -52
-48 -105 -128 -96 -144 4 -6 4 -9 -1 -5 -10 10 -37 -11 -29 -23 3 -5 1 -9 -5
-9 -5 0 -13 -9 -16 -20 -4 -11 -11 -17 -17 -14 -7 4 -8 2 -4 -5 4 -6 2 -18 -4
-26 -7 -8 -9 -15 -4 -16 5 0 -2 -5 -15 -10 -29 -12 -57 6 -41 26 8 9 8 15 0
20 -5 3 -10 15 -10 26 0 11 -4 17 -10 14 -6 -4 -10 5 -10 19 0 14 -4 26 -10
26 -5 0 -10 7 -10 15 0 8 -13 28 -30 45 -16 17 -30 35 -30 41 0 6 -4 8 -9 5
-5 -3 -12 1 -15 10 -3 8 -10 12 -16 9 -5 -3 -7 0 -4 9 3 9 -2 17 -15 21 -12 3
-19 11 -16 16 4 5 1 9 -5 9 -10 0 -22 8 -55 38 -8 7 -15 11 -15 7 0 -3 -13 1
-29 9 -16 9 -31 13 -34 9 -3 -3 -14 3 -24 12 -10 11 -19 13 -21 7 -2 -6 -10
-8 -18 -5 -7 3 -12 8 -9 12 2 4 -13 7 -33 6 -20 -1 -40 3 -44 9 -11 17 -40 15
-57 -3 -9 -9 -12 -11 -7 -4 5 8 6 17 2 20 -4 4 -10 3 -14 -3 -4 -6 -18 -14
-32 -18 -24 -7 -24 -6 -6 8 25 21 12 21 -18 1 -22 -14 -25 -14 -40 0 -14 14
-16 14 -16 1z m367 -71 c0 -8 -4 -12 -9 -9 -5 3 -6 10 -3 15 9 13 12 11 12 -6z
m43 -19 c0 -3 -4 -8 -10 -11 -5 -3 -10 -1 -10 4 0 6 5 11 10 11 6 0 10 -2 10
-4z m77 -71 c0 -8 -4 -12 -9 -9 -4 3 -8 9 -8 15 0 5 4 9 8 9 5 0 9 -7 9 -15z
m63 -55 c0 -5 -2 -10 -4 -10 -3 0 -8 5 -11 10 -3 6 -1 10 4 10 6 0 11 -4 11
-10z m437 -335 c0 -8 -4 -12 -9 -9 -5 3 -6 10 -3 15 9 13 12 11 12 -6z m-164
-720 c-3 -9 -8 -14 -10 -11 -3 3 -2 9 2 15 9 16 15 13 8 -4z m87 -605 c0 -5
-2 -10 -4 -10 -3 0 -8 5 -11 10 -3 6 -1 10 4 10 6 0 11 -4 11 -10z m-1745 -39
c3 -5 2 -12 -3 -15 -5 -3 -9 1 -9 9 0 17 3 19 12 6z m1685 -425 c0 -2 -8 -10
-17 -17 -16 -13 -17 -12 -4 4 13 16 21 21 21 13z m-285 -16 c3 -5 1 -10 -4
-10 -6 0 -11 5 -11 10 0 6 2 10 4 10 3 0 8 -4 11 -10z m-317 -102 c-2 -7 2
-12 8 -11 6 1 11 -5 11 -13 0 -12 -4 -11 -18 2 -10 9 -16 21 -13 25 8 13 14
11 12 -3z"/>
</g>
</svg>
